# xmcd
#
# Track frame offsets:
#	150
#	20825
#	37882
#	52899
#	68539
#	84026
#	99920
#	119897
#	137483
#	155411
#	169175
#	185869
#	204329
#	220742
#	236436
#	257646
#	274027
#	289475
#	302340
#
# Disc length: 4255 seconds
#
# Revision: 1
# Processed by: cddbd v1.5.2PL0 Copyright (c) Steve Scherf et al.
# Submitted via: audiograbber 1.83.01
#
DISCID=04109d13
DTITLE=Various Artist - Cream Of Country Vol 11
DYEAR=2008
DGENRE=Country
TTITLE0=Brad Paisley - Ticks
TTITLE1=Brooks and Dunn - Proud Of The House We Built
TTITLE2=Carrie Underwood - Before He Cheats
TTITLE3=Kenny Chesney - Neve Want Nothing More
TTITLE4=Sugarland - Settlin'
TTITLE5=Big and Rich - Lost In This Moment
TTITLE6=LeAnn Rimes - Nothin' Better To Do
TTITLE7=Gretchen Wilson - Come To Bed
TTITLE8=Little Big Town - I'm With The Band
TTITLE9=Emerson Drive - A Good Man
TTITLE10=Rebe McEntire - Because Of You
TTITLE11=Miranda Lambert - Famous In A Small Town
TTITLE12=Rodney Atkins - If You're Going Through Hell
TTITLE13=Josh Turner - Firecracker
TTITLE14=Martina McBride - Anyway
TTITLE15=Montgomery Gentry - What Do Ya Think About That
TTITLE16=Sara Evans - Cheatin'
TTITLE17=Vince Gill - The Reason Why
TTITLE18=Kellie Pickler - Red High Heels
EXTD=
EXTT0=
EXTT1=
EXTT2=
EXTT3=
EXTT4=
EXTT5=
EXTT6=
EXTT7=
EXTT8=
EXTT9=
EXTT10=
EXTT11=
EXTT12=
EXTT13=
EXTT14=
EXTT15=
EXTT16=
EXTT17=
EXTT18=
PLAYORDER=
